<?xml version="1.0" encoding="UTF-8"?>
<svg width="200px" height="200px" viewBox="0 0 200 200" version="1.1" xmlns="http://www.w3.org/2000/svg" xmlns:xlink="http://www.w3.org/1999/xlink">
    <title>divi-logomark-red</title>
    <defs>
        <linearGradient x1="0%" y1="0%" x2="100%" y2="100%" id="linearGradient-1">
            <stop stop-color="#EC2C1C" offset="0%"></stop>
            <stop stop-color="#EC1C62" offset="100%"></stop>
        </linearGradient>
    </defs>
    <g id="Page-1" stroke="none" stroke-width="1" fill="none" fill-rule="evenodd">
        <g id="divi-logomark-red">
            <rect id="Circle" fill="url(#linearGradient-1)" x="0" y="0" width="200" height="200" rx="100"></rect>
            <path d="M48.7657166,52.342658 C71.381963,52.342658 90.3732183,52.342658 105.739483,52.342658 C128.788879,52.342658 152.765717,67.9231986 152.765717,100.355631 C152.765717,132.788063 128.788879,148.342658 105.739483,148.342658 C90.3732183,148.342658 76.3628009,148.342658 63.7082303,148.342658 L63.7082303,96.4611182 L88.1134736,96.4611182 L88.1134736,124.991307 C91.7290651,124.991307 97.1524525,124.991307 104.383636,124.991307 C115.23041,124.991307 127.433032,113.315631 127.433032,100.342658 C127.433032,87.3696851 115.23041,75.6940094 104.383636,75.6940094 C93.5368609,75.6940094 93.5086625,75.6940094 77.2385003,75.6940094 C65.4878277,75.6940094 55.9968998,67.9102256 48.7657166,52.342658 Z" id="Path-D" fill="#FFFFFF"></path>
        </g>
    </g>
</svg>